# xmcd CD database file
#
# Track frame offsets:
#	150
#	94098
#	175131
#
# Disc length: 3080 seconds
#
# Revision: 0
# Processed by: cddbd v1.5.1PL0 Copyright (c) Steve Scherf et al.
# Submitted via: CDex 1.51
#
DISCID=1b0c0603
DTITLE=Soundmotiv - Ayurveda
DYEAR=1900
DGENRE=New Age
TTITLE0=Vata - das Bewegungsprinzip (Elemente:Luft und Äther/Raum)
TTITLE1=Pitta - das Stoffwechselprinzip (Elemente: Feuer und Wasser)
TTITLE2=Kapha - das Strukturprinzip (Elemente: Wasser und Erde)
EXTD=
EXTT0=
EXTT1=
EXTT2=
PLAYORDER=
